# xmcd CD database file
#
# Track frame offsets:
#	150
#	1567
#	13772
#	25170
#	35127
#	47470
#	61030
#	74347
#	84330
#	94952
#	105090
#	119147
#	135845
#	156287
#	179740
#	191517
#	206270
#
# Disc length: 2928 seconds
#
# Revision: 0
# Processed by: cddbd v1.5.1PL0 Copyright (c) Steve Scherf et al.
# Submitted via: CDex 1.51
#
DISCID=d30b6e11
DTITLE=Various Artist - Satin Dolls
DYEAR=1900
DGENRE=Jazz
TTITLE0=Satin Dolls Intro
TTITLE1=Unforgettable
TTITLE2=Red Sails In The Sunset
TTITLE3=Where Or When
TTITLE4=You're Nobody Til Somebody Loves You
TTITLE5=Misty
TTITLE6=That Old Black Magic
TTITLE7=Careless
TTITLE8=You Stepped Out Of A Dream
TTITLE9=You're Much Too Marvelous
TTITLE10=Say It Isn't So
TTITLE11=Our Love Is Here To Stay
TTITLE12=Star Fell On Alabama
TTITLE13=My Way
TTITLE14=Chain Gang
TTITLE15=Just Call Me Angel
TTITLE16=I Got Life
EXTD=
EXTT0=
EXTT1=
EXTT2=
EXTT3=
EXTT4=
EXTT5=
EXTT6=
EXTT7=
EXTT8=
EXTT9=
EXTT10=
EXTT11=
EXTT12=
EXTT13=
EXTT14=
EXTT15=
EXTT16=
PLAYORDER=
